# xmcd
#
# Track frame offsets:
#	150
#	18420
#	31048
#	51168
#	62695
#	74435
#	85460
#	98028
#	116778
#	129773
#	142870
#	154585
#	175440
#	188768
#	201458
#	220583
#
# Disc length: 3177 seconds
#
# Revision: 1
# Processed by: cddbd v1.5.2PL0 Copyright (c) Steve Scherf et al.
# Submitted via: audiograbber 1.83.01
#
DISCID=db0c6710
DTITLE=Various Artist - The Shamrock Connection - Vol. 2
DYEAR=1994
DGENRE=Country
TTITLE0=Barbara Ellis - An old Irish song
TTITLE1=Jimmy Buckley - Dy you mind (if I step into your dreams)
TTITLE2=John Farry - How was it for you
TTITLE3=Norman Morrissey - I've been loving you for so long
TTITLE4=Jimmy Hynes - Julianne
TTITLE5=Paddy O'Brien - Little white cross
TTITLE6=Sharon Turkey - Magic
TTITLE7=John Flood - My old Sligo home
TTITLE8=Trudi Lalor - One hundred honeymoons
TTITLE9=Kevin Prendergast - Peace in our land
TTITLE10=Gene Stuart - She's just an old love turned memory
TTITLE11=Patrick Roche - Someone's thniking of you
TTITLE12=Margo - Through the eyes of a child
TTITLE13=Sandy Kelly and Hal Ketchum - When the leaves turn to brown
TTITLE14=Bagatelle - A few steps away
TTITLE15=The Conquerors - Seven drunken nights
EXTD=
EXTT0=
EXTT1=
EXTT2=
EXTT3=
EXTT4=
EXTT5=
EXTT6=
EXTT7=
EXTT8=
EXTT9=
EXTT10=
EXTT11=
EXTT12=
EXTT13=
EXTT14=
EXTT15=
PLAYORDER=
